<svg enable-background="new 0 0 113 55" height="55" viewBox="0 0 113 55" width="113" xmlns="http://www.w3.org/2000/svg" xmlns:xlink="http://www.w3.org/1999/xlink"><mask id="a" height="34.8" maskUnits="userSpaceOnUse" width="112.6" x=".5" y="9.9"><path clip-rule="evenodd" d="m.7 0h111.8v55h-111.8z" fill="#fff" fill-rule="evenodd"/></mask><g><path clip-rule="evenodd" d="m.7 0h111.8v55h-111.8z" fill="none"/><path d="m59.8 18.6c0 1.3-1 2.3-2.3 2.3s-2.3-1-2.3-2.3 1-2.3 2.3-2.3c1.3.1 2.3 1.1 2.3 2.3zm-9.4 4.6v.6s-1.1-1.4-3.4-1.4c-3.8 0-6.8 2.9-6.8 6.9s3 6.9 6.8 6.9c2.4 0 3.4-1.4 3.4-1.4v.6c0 .3.2.5.5.5h2.8v-13.2s-2.6 0-2.8 0c-.3 0-.5.3-.5.5zm0 8.4c-.5.8-1.6 1.4-2.8 1.4-2.3 0-4-1.4-4-3.8s1.7-3.8 4-3.8c1.2 0 2.4.7 2.8 1.4zm5.4 4.2h3.4v-13.1h-3.4zm50.5-13.4c-2.3 0-3.4 1.4-3.4 1.4v-7.3h-3.4v19.4h2.8c.3 0 .5-.2.5-.5v-.6s1.1 1.4 3.4 1.4c3.8 0 6.8-2.9 6.8-6.9s-2.9-6.9-6.7-6.9zm-.6 10.6c-1.3 0-2.3-.7-2.8-1.4v-4.7c.5-.7 1.7-1.4 2.8-1.4 2.3 0 4 1.4 4 3.8s-1.7 3.7-4 3.7zm-8-5v7.8h-3.4v-7.4c0-2.2-.7-3-2.6-3-1 0-2.1.5-2.7 1.3v9.1h-3.4v-13.1h2.7c.3 0 .5.2.5.5v.6c1-1 2.3-1.4 3.6-1.4 1.5 0 2.7.4 3.7 1.3 1.2.9 1.6 2.2 1.6 4.3zm-20.3-5.6c-2.3 0-3.4 1.4-3.4 1.4v-7.3h-3.4v19.4h2.8c.3 0 .5-.2.5-.5v-.6s1.1 1.4 3.4 1.4c3.8 0 6.8-2.9 6.8-6.9.2-4-2.8-6.9-6.7-6.9zm-.5 10.6c-1.3 0-2.3-.7-2.8-1.4v-4.7c.5-.7 1.7-1.4 2.8-1.4 2.3 0 4 1.4 4 3.8s-1.8 3.7-4 3.7zm-9.2-10.6c1 0 1.5.2 1.5.2v3.1s-2.8-.9-4.6 1v9.2h-3.4v-13.2h2.8c.3 0 .5.2.5.5v.6c.8-.8 2.2-1.4 3.2-1.4zm-35 12.2c-.2-.4-.4-.9-.5-1.3-.3-.6-.6-1.2-.8-1.8-2.4-5.2-5-10.5-7.8-15.7l-.1-.2c-.3-.5-.6-1.1-.8-1.6-.4-.6-.7-1.3-1.3-1.9-1.1-1.4-2.7-2.2-4.5-2.2s-3.3.8-4.5 2.1c-.5.6-.9 1.3-1.3 1.9-.3.6-.6 1.1-.8 1.6l-.1.2c-2.8 5.3-5.4 10.6-7.8 15.8v.1c-.2.6-.5 1.1-.8 1.8-.2.4-.4.8-.5 1.3-.5 1.3-.6 2.5-.4 3.8.4 2.6 2.1 4.8 4.6 5.8.7.2 1.7.4 2.7.4.3 0 .6 0 .9-.1 1.2-.1 2.4-.5 3.5-1.2 1.4-.8 2.8-2 4.4-3.6 1.5 1.7 3 2.8 4.4 3.6 1.2.7 2.4 1 3.5 1.2.3 0 .6.1.9.1 1 0 2-.2 2.8-.6 2.5-1 4.2-3.2 4.6-5.8.3-1.2.1-2.4-.3-3.7zm-15.9 1.8c-1.9-2.4-3.1-4.6-3.6-6.5-.2-.8-.2-1.5-.1-2.1s.3-1 .6-1.5c.7-.9 1.8-1.5 3.1-1.5s2.5.6 3.1 1.5c.3.4.5.9.6 1.5s.1 1.4-.1 2.1c-.5 1.9-1.7 4.1-3.6 6.5zm14 1.7c-.2 1.8-1.5 3.4-3.2 4.1-.8.3-1.8.5-2.7.3-.9-.1-1.8-.4-2.7-.9-1.3-.7-2.5-1.8-4-3.4 2.3-2.8 3.7-5.4 4.3-7.7.2-1.1.3-2.1.2-3s-.5-1.7-.9-2.4c-1.1-1.6-2.9-2.5-5-2.5-2 0-3.9.9-5 2.5-.5.7-.8 1.5-.9 2.4s-.1 1.9.2 3c.5 2.3 2 4.9 4.3 7.7-1.4 1.6-2.7 2.7-4 3.4-.9.5-1.8.8-2.7.9-1 .1-1.9 0-2.7-.3-1.7-.7-3-2.3-3.2-4.1-.1-.9 0-1.7.3-2.7.1-.3.3-.7.5-1.1.2-.6.5-1.1.8-1.7v-.1c2.4-5.2 5-10.5 7.7-15.6l.1-.2c.3-.5.6-1.1.8-1.6.3-.6.6-1.1 1-1.5.7-.8 1.7-1.3 2.8-1.3s2.1.5 2.8 1.3c.4.5.7 1 1 1.5s.6 1.1.8 1.6l.1.2c2.7 5.2 5.3 10.5 7.7 15.7.3.6.5 1.2.8 1.7.2.4.4.8.5 1.1.4.9.5 1.8.3 2.7z" fill="#ff5a5f" mask="url(#a)"/></g></svg>