<svg enable-background="new -893.5 574.6 439.7 148.7" viewBox="-893.5 574.6 439.7 148.7" xmlns="http://www.w3.org/2000/svg"><g fill="#ff6f00"><path d="m-892.8 723.4-.7-.7c9-25.3 13.4-38.7 14.2-39.5l41.7-41.6c-1.5 6.8-9.7 33.5-23.1 81.8zm19.4-57.3h-.7c1.1-4.7 3.7-8.9 7.4-11.9 11.9-11.9 23.8-23.8 35.7-34.9-.5 3.4-2.1 6.5-4.5 9zm16.4-49c8.9-28.2 14.1-42.4 14.8-42.4h27.5c-10.3 10.4-24.5 24.5-42.3 42.4zm-8.3 25.2h-.7c4.5-13.4 6.8-20 7.5-20.8l45.4-44.6c.7 0 2.3 3 3.7 9.7zm39.4-23.8h-.7c.1-1.1-.1-2.2-.7-3.1v-.7c6.6-7.1 13.5-13.8 20.8-20.1.6.9.9 1.9.7 3-7.3 8.3-14.1 14.9-20.1 20.9zm61.8 104.9h-31.9c-.7 0-3-7.5-6.8-20.9-11.9-43.1-19.3-68.4-20.8-75.1l20.8-20.8h.7c3 9 15.6 47.6 38.7 116z"/><path d="m-668.9 680.9h-1.5c-.7-.7-.7-.7-.7-1.5v-58.6c0-.7 0-.7.7-1.5.4-.4.9-.7 1.5-.7h34.2c.6.1 1.1.3 1.5.7.7.7.7.7.7 1.5v1.5c0 .7 0 .7-.7 1.5-.4.4-.9.7-1.5.7h-30.5v23.8h29c.6 0 1.1.3 1.5.7v3.8c-.4.4-.9.7-1.5.7h-29v26c0 .7-.7.7-.7 1.5z"/><path d="m-622 625.2h-1.5v-6.8c.7 0 .7-.7 1.5-.7h3.7c.7 0 .7.7 1.5.7 0 .7.7.7.7 1.5v3.7c-.4.4-.7.9-.7 1.5zm1.5 55.8h-1.5c-.7-.7-.7-.7-.7-1.5v-42.4c0-.7 0-1.5.7-1.5 0-.7.7-.7 1.5-.7h1.5c.6 0 1.1.3 1.5.7v45.2z"/><path d="m-553.5 655.7h28.2v-.7c.3-2.8-.2-5.7-1.5-8.2-1.3-2.1-3.1-3.8-5.2-5.2-2.1-1.6-4.8-2.4-7.5-2.3-2.7-.1-5.3.7-7.4 2.3-2.1 1.3-3.8 3.1-5.2 5.2-.9 2.6-1.4 5.4-1.5 8.2v.7zm14.1 26.7c-5.1.2-10.1-2-13.4-5.9-3.9-4-6-9.3-6-14.9v-7.4c-.2-3.7.9-7.4 3-10.4 1.6-3 3.9-5.5 6.8-7.4 3-1.6 6.3-2.4 9.7-2.3 3.7-.3 7.4.8 10.4 3 3 1.7 5.3 4.3 6.8 7.4 2.2 3.8 3.2 8.2 3 12.6v1.5c-.4.4-.7.9-.7 1.5h-33.6v.7c-.1 2.9.7 5.7 2.3 8.2.8 2.4 2.4 4.5 4.5 6 2.2 1.5 4.8 2.3 7.4 2.3 2.3-.1 4.6-.6 6.8-1.5 1.3-.6 2.6-1.3 3.7-2.3l2.3-2.3c.1-.6.3-1.1.7-1.5h4.5c.7.7.7.7.7 1.5-.2 1.1-.7 2.2-1.5 3-.8 1.6-2.1 2.9-3.7 3.7-1.7 1.4-3.8 2.4-5.9 3-2.6 1-5.2 1.5-7.8 1.5z"/><path d="m-504.5 680.9h-1.5c-.7-.7-.7-.7-.7-1.5v-58.6c0-.7 0-.7.7-1.5.4-.4.9-.7 1.5-.7h2.3c.7 0 .7.7 1.5.7v.7l20.9 39.4 19.9-39.4c0-.4.3-.7.7-.7l.7-.7h2.3c.6.1 1.1.3 1.5.7.7.7.7.7.7 1.5v58.6c0 .7 0 .7-.7 1.5h-4.5v-49.6l-17.1 33.4-1.5 1.5h-5.2l-1.5-1.5-16.4-33.4v48.3c0 .7-.7.7-.7 1.5h-3v-.2z"/><path d="m-601.9 635.5 15.6 39.4 15.2-39.4s3.6-1.8 6.3.7l-18.5 44.6h-6l-17.8-44.6s2-2.6 5.2-.7z"/></g></svg>