<svg enable-background="new 0 0 146 55" height="55" viewBox="0 0 146 55" width="146" xmlns="http://www.w3.org/2000/svg"><g><path clip-rule="evenodd" d="m0 0h145.8v55h-145.8z" fill="none"/><path d="m51.5 30.3-.9 2.4h-.1c-.1-.5-.4-1.4-.8-2.4l-4.7-11.4h-4.6v18.2h3v-11.2c0-.7 0-1.5 0-2.5 0-.5-.1-.9-.1-1.2h.1c.1.7.3 1.2.4 1.6l5.6 13.3h2.1l5.6-13.4c.1-.3.2-.9.4-1.4h.1c-.1 1.3-.1 2.5-.1 3.3v11.6h3.2v-18.3h-4.4zm12.2-6.3h3.1v13.1h-3.1zm1.6-5.5c-.5 0-1 .2-1.3.5-.4.3-.6.8-.6 1.3s.2.9.6 1.3c.4.3.8.5 1.3.5s1-.2 1.3-.5c.4-.3.6-.8.6-1.3s-.2-.9-.5-1.3c-.4-.3-.8-.5-1.4-.5zm12.7 5.4c-.6-.1-1.2-.2-1.8-.2-1.4 0-2.7.3-3.8.9s-2 1.5-2.5 2.5c-.6 1.1-.9 2.3-.9 3.8 0 1.3.3 2.4.8 3.4.6 1 1.3 1.8 2.4 2.3 1 .5 2.2.8 3.5.8 1.5 0 2.8-.3 3.8-.9v-2.8l-.1.1c-.5.3-1 .6-1.5.8-.6.2-1.1.3-1.5.3-1.3 0-2.2-.4-2.9-1.1-.7-.8-1.1-1.8-1.1-3.1s.4-2.4 1.1-3.2 1.7-1.2 2.9-1.2c1 0 2.1.3 3 1l.1.1v-3c-.4-.2-.9-.4-1.5-.5zm10.4-.1c-.8 0-1.5.2-2.1.7-.5.4-.9 1-1.2 1.8v-2.3h-3.1v13.1h3v-6.7c0-1.1.2-2.1.8-2.8.5-.7 1.2-1.1 2-1.1.3 0 .6.1.9.1.3.1.6.2.7.3l.1.1v-3h-.1c-.1-.1-.5-.2-1-.2zm8.5-.1c-2.2 0-4 .6-5.2 1.9-1.3 1.3-1.9 3-1.9 5.1 0 2 .6 3.7 1.8 4.9s2.9 1.8 4.9 1.8c2.2 0 3.9-.6 5.1-1.9 1.3-1.3 1.9-3 1.9-5.1s-.6-3.7-1.8-4.9c-1-1.2-2.7-1.8-4.8-1.8zm2.5 10.1c-.6.7-1.5 1.1-2.6 1.1s-2.1-.4-2.7-1.1c-.7-.7-1-1.8-1-3.1 0-1.4.3-2.5 1-3.2.7-.8 1.5-1.1 2.7-1.1 1.1 0 2 .4 2.6 1.1s1 1.8 1 3.2c-.1 1.2-.3 2.3-1 3.1zm11.2-4.4c-1-.4-1.6-.7-1.9-1-.2-.2-.4-.6-.4-1s.1-.7.5-.9.8-.4 1.4-.4c.5 0 1.1.1 1.6.2s1 .4 1.4.6l.1.1v-2.9h-.1c-.4-.1-.8-.3-1.4-.4s-1.1-.1-1.5-.1c-1.5 0-2.7.4-3.7 1.1s-1.4 1.7-1.4 2.9c0 .6.1 1.2.3 1.6s.5.9 1 1.2c.4.3 1.1.7 1.9 1.1.7.3 1.3.5 1.6.7s.6.4.7.6.2.4.2.7c0 .9-.7 1.3-2.1 1.3-.5 0-1.1-.1-1.7-.3-.7-.2-1.3-.5-1.8-.9l-.1-.1v3h.1c.5.2 1 .4 1.7.5s1.3.2 1.8.2c1.6 0 2.9-.4 3.9-1.1 1-.8 1.5-1.7 1.5-3 0-.9-.2-1.7-.8-2.2-.7-.4-1.6-1-2.8-1.5zm11.9-5.7c-2.2 0-4 .6-5.2 1.9s-1.9 3-1.9 5.1c0 2 .6 3.7 1.8 4.9s2.9 1.8 4.9 1.8c2.2 0 3.9-.6 5.1-1.9 1.3-1.3 1.9-3 1.9-5.1s-.6-3.7-1.8-4.9c-1.1-1.2-2.7-1.8-4.8-1.8zm2.5 10.1c-.6.7-1.5 1.1-2.6 1.1-1.2 0-2.1-.4-2.7-1.1-.7-.7-1-1.8-1-3.1 0-1.4.3-2.5 1-3.2.7-.8 1.5-1.1 2.7-1.1 1.1 0 2 .4 2.6 1.1s1 1.8 1 3.2c-.1 1.2-.4 2.3-1 3.1zm20.9-7.3v-2.5h-3.2v-3.9h-.1l-3 .9h-.1v3h-4.7v-1.7c0-.8.2-1.3.5-1.7s.8-.6 1.5-.6c.4 0 .9.1 1.4.3l.1.1v-2.7h-.1c-.4-.1-1-.2-1.8-.2-.9 0-1.8.2-2.5.6s-1.3.9-1.7 1.7c-.4.7-.6 1.5-.6 2.4v1.8h-2.2v2.5h2.2v10.6h3.2v-10.6h4.7v6.7c0 2.8 1.3 4.2 4 4.2.4 0 .9-.1 1.3-.1.5-.1.8-.2 1-.3v-2.5l-.1.1c-.2.1-.4.2-.7.3-.2.1-.5.1-.6.1-.6 0-1.1-.1-1.4-.5-.3-.3-.4-.9-.4-1.7v-6.2h3.3z" fill="#737373"/><path d="m0 12.8h14.8v14.4h-14.8z" fill="#f25022"/><path d="m16.4 12.8h14.8v14.4h-14.8z" fill="#7fba00"/><path d="m0 28.7h14.8v14.5h-14.8z" fill="#00a4ef"/><path d="m16.4 28.7h14.8v14.5h-14.8z" fill="#ffb900"/></g></svg>